<?xml version="1.0" encoding="UTF-8"?>
<!DOCTYPE svg PUBLIC "-//W3C//DTD SVG 1.1//EN" "http://www.w3.org/Graphics/SVG/1.1/DTD/svg11.dtd">
<svg xmlns="http://www.w3.org/2000/svg" version="1.1" width="90px" height="90px" style="shape-rendering:geometricPrecision; text-rendering:geometricPrecision; image-rendering:optimizeQuality; fill-rule:evenodd; clip-rule:evenodd" xmlns:xlink="http://www.w3.org/1999/xlink">
<g><path style="opacity:0.735" fill="#000000" d="M 33.5,7.5 C 41.6114,7.11111 49.278,8.77778 56.5,12.5C 63.7205,8.61048 71.3872,7.11048 79.5,8C 80,8.5 80.5,9 81,9.5C 81.8321,19.1839 81.6655,28.8505 80.5,38.5C 72.0136,39.7177 63.8469,42.0511 56,45.5C 48.9588,41.9329 41.4588,39.7662 33.5,39C 33,38.5 32.5,38 32,37.5C 30.9,27.2453 31.4,17.2453 33.5,7.5 Z M 39.5,16.5 C 43.8805,17.2934 48.2138,18.2934 52.5,19.5C 52.8275,24.544 52.4941,29.544 51.5,34.5C 47.622,32.9913 43.622,31.9913 39.5,31.5C 39.5,26.5 39.5,21.5 39.5,16.5 Z M 69.5,16.5 C 70.8333,16.5 72.1667,16.5 73.5,16.5C 73.5,21.5 73.5,26.5 73.5,31.5C 69.378,31.9913 65.378,32.9913 61.5,34.5C 60.5059,29.544 60.1725,24.544 60.5,19.5C 63.6702,18.7345 66.6702,17.7345 69.5,16.5 Z"/></g>
<g><path style="opacity:0.854" fill="#000000" d="M 19.5,43.5 C 22.1873,43.3359 24.854,43.5026 27.5,44C 37.8414,47.9211 47.6747,52.7544 57,58.5C 57.2022,60.2556 57.7022,61.9223 58.5,63.5C 65.7852,59.4596 73.4519,56.9596 81.5,56C 84.4629,58.2706 85.1295,61.1039 83.5,64.5C 73.3829,71.2249 62.7162,76.8916 51.5,81.5C 41.0759,77.7901 30.7426,73.7901 20.5,69.5C 15.3542,72.076 10.0209,74.076 4.5,75.5C 4.33358,66.8269 4.50025,58.1603 5,49.5C 10.0379,47.7715 14.8713,45.7715 19.5,43.5 Z"/></g>
</svg>
